<?xml version="1.0" encoding="UTF-8" standalone="no"?>
<svg
   xmlns:dc="http://purl.org/dc/elements/1.1/"
   xmlns:cc="http://creativecommons.org/ns#"
   xmlns:rdf="http://www.w3.org/1999/02/22-rdf-syntax-ns#"
   xmlns:svg="http://www.w3.org/2000/svg"
   xmlns="http://www.w3.org/2000/svg"
   width="800"
   height="800"
   viewBox="0 0 211.66667 211.66667"
   version="1.1"
   id="svg8">
  <defs
     id="defs2" />
  <metadata
     id="metadata5">
    <rdf:RDF>
      <cc:Work
         rdf:about="">
        <dc:format>image/svg+xml</dc:format>
        <dc:type
           rdf:resource="http://purl.org/dc/dcmitype/StillImage" />
        <dc:title></dc:title>
      </cc:Work>
    </rdf:RDF>
  </metadata>
  <g
     id="layer1">
    <g
       aria-label="C"
       id="text20-8"
       style="font-size:249.932px;line-height:1.25;font-family:Daydream;-inkscape-font-specification:'Daydream, Normal';stroke-width:0.374897">
      <path
         d="m 147.53181,5.63737 q 10.74708,-0.749796 15.74572,8.997552 3.24911,6.2483 3.24911,15.245853 v 0.249932 q 0.24994,9.497416 -2.99918,19.494696 -3.24912,9.747348 -9.24748,16.745445 -1.4996,1.499592 -2.74926,0.249932 -1.24966,-1.24966 -0.24993,-2.49932 5.74844,-6.498233 8.74762,-15.995649 2.99919,-9.497416 2.99919,-18.245036 0,-0.499864 -0.49987,-2.249388 -0.24993,-1.749524 -0.99973,-3.499048 -0.74979,-1.999457 -2.24938,-3.499049 -1.4996,-1.499592 -3.99892,-1.749524 -1.49959,0 -5.24857,1.499592 -3.74898,1.24966 -9.24748,4.498777 -5.49851,2.999184 -11.99674,8.247756 -6.49823,4.99864 -13.49633,12.4966 -6.2483,6.748164 -13.24639,16.495513 -6.9981,9.747348 -13.746264,23.243676 -6.748164,13.246397 -12.746533,30.49171 -5.748436,16.99537 -9.497416,38.23959 -2.749252,13.74626 -0.249932,23.99347 2.749252,9.99728 9.99728,15.49579 6.748165,5.24857 14.496057,5.4985 7.997824,0 13.746258,-2.74925 0,-0.24993 0.49987,-0.24993 14.74598,-6.49823 29.49197,-18.24504 14.99592,-11.99673 27.74246,-28.49225 0.99972,-1.24966 2.49932,-0.24993 1.24966,1.49959 0.24993,2.49932 -10.99701,14.24613 -24.49334,25.99293 -13.2464,11.49687 -27.49252,18.7449 l -7.24803,3.24912 -2.49932,1.24966 q -13.246394,5.24857 -24.493335,5.24857 -8.247756,0 -14.496056,-2.99918 -4.248844,-1.74953 -8.247756,-5.49851 -3.998912,-3.74898 -6.748164,-10.24721 -2.749252,-6.49823 -3.499048,-15.99565 -0.749796,-9.74735 1.499592,-23.74354 3.499048,-20.24449 8.997552,-36.74001 Q 61.305269,94.1133 67.803501,80.866904 74.301733,67.620508 81.29983,57.623227 88.297926,47.625947 94.546226,40.377919 109.54215,23.382542 124.0382,14.884854 138.53426,6.137234 147.53181,5.63737 Z"
         style="stroke-width:0.374897"
         id="path40" />
    </g>
    <g
       aria-label="L"
       id="text16"
       style="font-size:124.446px;line-height:1.25;font-family:Daydream;-inkscape-font-specification:'Daydream, Normal';stroke-width:0.186669"
       transform="matrix(1.3216191,0,0,1.3216191,-35.621383,-44.996394)">
      <path
         d="m 144.89738,140.85605 q 0.49779,-0.74668 1.24446,0 0.74668,0.49778 0,1.24446 -3.73338,3.73338 -7.8401,5.84896 -4.10671,2.11558 -8.46232,3.11115 -4.23117,0.99557 -8.58678,1.24446 -4.35561,0.24889 -8.46233,0.37334 -1.3689,0 -2.86225,0.12444 -1.36891,0 -2.73782,0 -3.48448,8.71122 -6.84453,12.81794 -2.488917,3.2356 -5.102283,4.48006 -2.613366,1.3689 -4.853394,1.3689 -2.364474,0 -3.857826,-1.12001 -2.240028,-1.24446 -2.613366,-3.85783 -0.124446,-0.24889 -0.124446,-0.24889 v -0.37334 q -0.248892,-1.74224 0.746676,-3.48448 2.48892,-4.72895 5.973408,-6.96898 3.484488,-2.36447 7.840098,-3.36004 2.115583,-5.35118 4.728953,-13.31572 2.61336,-8.08899 5.22673,-18.16912 2.73781,-10.20457 5.47562,-22.275834 2.73781,-12.071262 5.22673,-25.51143 0.2489,-0.871122 0.99557,-1.120014 0.62223,-0.248892 1.49335,0 0.99557,0.124446 1.99114,0.62223 0.99557,0.373338 1.86669,0.995568 0.87112,0.497784 1.36891,0.871122 1.3689,1.120014 1.12001,2.115582 -0.74668,3.360042 -1.86669,8.71122 -1.12001,5.226732 -2.61337,11.573478 -1.3689,6.346748 -3.23559,13.564618 -1.74225,7.09342 -3.73338,14.31129 -1.86669,7.09342 -4.10672,13.93795 -2.11558,6.84453 -4.35561,12.56904 1.24446,0 2.36447,0 1.24446,-0.12444 2.48892,-0.12444 4.23117,-0.12445 8.46233,-0.37334 4.23117,-0.24889 8.33788,-1.12001 4.10672,-0.99557 7.96455,-2.86226 3.85782,-1.99114 7.34231,-5.60007 z m -50.525075,19.53802 q 0.62223,-0.99557 1.368906,-2.48892 0.871122,-1.6178 1.742244,-3.73338 -3.608934,0.99557 -6.471192,3.11115 -2.737812,1.99114 -4.853394,5.97341 -0.746676,1.24446 -0.497784,2.86226 0.248892,0.87112 0.871122,0.87112 0.871122,0.24889 2.986704,-1.12002 2.115582,-1.49335 4.853394,-5.47562 z"
         style="stroke-width:0.186669"
         id="path46" />
    </g>
    <g
       aria-label="C"
       id="text20"
       style="font-size:84.6823px;line-height:1.25;font-family:Daydream;-inkscape-font-specification:'Daydream, Normal';stroke-width:0.127023">
      <path
         d="m 154.4794,78.152765 q 3.64134,-0.254047 5.33499,3.048562 1.10087,2.117058 1.10087,5.16562 v 0.08468 q 0.0847,3.217927 -1.01619,6.605219 -1.10087,3.302609 -3.13325,5.673714 -0.50809,0.508093 -0.9315,0.08468 -0.42341,-0.423411 -0.0847,-0.846823 1.9477,-2.20174 2.96389,-5.419667 1.01618,-3.217927 1.01618,-6.181808 0,-0.169364 -0.16936,-0.76214 -0.0847,-0.592776 -0.33873,-1.185552 -0.25405,-0.677459 -0.76214,-1.185553 -0.5081,-0.508093 -1.35492,-0.592776 -0.50809,0 -1.77833,0.508094 -1.27023,0.423412 -3.13324,1.524281 -1.86301,1.016188 -4.06475,2.794516 -2.20174,1.693646 -4.57285,4.234115 -2.11705,2.286422 -4.48816,5.589032 -2.3711,3.302606 -4.65752,7.875456 -2.28643,4.48816 -4.3188,10.33124 -1.94769,5.75839 -3.21793,12.95639 -0.9315,4.65753 -0.0847,8.1295 0.9315,3.38729 3.38729,5.2503 2.28642,1.77833 4.91157,1.86301 2.70984,0 4.65753,-0.9315 0,-0.0847 0.16937,-0.0847 4.99625,-2.20174 9.99251,-6.1818 5.08093,-4.06475 9.39973,-9.65378 0.33873,-0.42342 0.84682,-0.0847 0.42342,0.5081 0.0847,0.84683 -3.72602,4.82689 -8.29887,8.80695 -4.48816,3.89539 -9.31505,6.35118 l -2.45579,1.10087 -0.84682,0.42341 q -4.48816,1.77833 -8.29887,1.77833 -2.79451,0 -4.91157,-1.01619 -1.4396,-0.59278 -2.79451,-1.86301 -1.35492,-1.27024 -2.28643,-3.47198 -0.9315,-2.20174 -1.18555,-5.41966 -0.25405,-3.30261 0.50809,-8.04482 1.18556,-6.85927 3.04857,-12.4483 1.86301,-5.67371 4.06475,-10.16187 2.20174,-4.488166 4.57284,-7.875458 2.37111,-3.387292 4.48816,-5.843078 5.08094,-5.758396 9.99251,-8.637594 4.91158,-2.963881 7.96014,-3.133245 z"
         style="stroke-width:0.127023"
         id="path43" />
    </g>
  </g>
</svg>
